# 3ds Max Wavefront OBJ Exporter v0.97b - (c)2007 guruware
# File Created: 21.11.2019 10:18:05

mtllib cokesign.mtl

#
# object Box002
#

v  15.7587 0.0000 7.6317
v  15.7587 0.0000 5.8016
v  17.5644 0.0000 5.8016
v  17.5644 0.0000 7.6317
v  15.7587 70.4627 7.6317
v  17.5644 70.4627 7.6317
v  17.5644 70.4627 5.8016
v  15.7587 70.4627 5.8016
# 8 vertices

vn -0.5774 -0.5774 0.5774
vn -0.5774 -0.5774 -0.5774
vn 0.5774 -0.5774 -0.5774
vn 0.5774 -0.5774 0.5774
vn -0.5774 0.5774 0.5774
vn 0.5774 0.5774 0.5774
vn 0.5774 0.5774 -0.5774
vn -0.5774 0.5774 -0.5774
# 8 vertex normals

vt 1.0000 0.0000 0.0000
vt 1.0000 1.0000 0.0000
vt 0.0000 1.0000 0.0000
vt 0.0000 0.0000 0.0000
# 4 texture coords

o Box002
g Box002
usemtl 02___Default
s 2
f 1/1/1 2/2/2 3/3/3 4/4/4 
s 4
f 5/4/5 6/1/6 7/2/7 8/3/8 
s 8
f 1/4/1 4/1/4 6/2/6 5/3/5 
s 16
f 4/4/4 3/1/3 7/2/7 6/3/6 
s 32
f 3/4/3 2/1/2 8/2/8 7/3/7 
s 64
f 2/4/2 1/1/1 5/2/5 8/3/8 
# 6 polygons

#
# object Box003
#

v  -13.7434 0.0000 7.6317
v  -13.7434 0.0000 5.8016
v  -11.9377 0.0000 5.8016
v  -11.9377 0.0000 7.6317
v  -13.7434 70.4627 7.6317
v  -11.9377 70.4627 7.6317
v  -11.9377 70.4627 5.8016
v  -13.7434 70.4627 5.8016
# 8 vertices

vn -0.5774 -0.5774 0.5774
vn -0.5774 -0.5774 -0.5774
vn 0.5774 -0.5774 -0.5774
vn 0.5774 -0.5774 0.5774
vn -0.5774 0.5774 0.5774
vn 0.5774 0.5774 0.5774
vn 0.5774 0.5774 -0.5774
vn -0.5774 0.5774 -0.5774
# 8 vertex normals

vt 1.0000 0.0000 0.0000
vt 1.0000 1.0000 0.0000
vt 0.0000 1.0000 0.0000
vt 0.0000 0.0000 0.0000
# 4 texture coords

o Box003
g Box003
usemtl 02___Default
s 2
f 9/5/9 10/6/10 11/7/11 12/8/12 
s 4
f 13/8/13 14/5/14 15/6/15 16/7/16 
s 8
f 9/8/9 12/5/12 14/6/14 13/7/13 
s 16
f 12/8/12 11/5/11 15/6/15 14/7/14 
s 32
f 11/8/11 10/5/10 16/6/16 15/7/15 
s 64
f 10/8/10 9/5/9 13/6/13 16/7/16 
# 6 polygons

#
# object Box004
#

v  -18.7470 73.0672 7.9504
v  -19.0403 50.0450 7.9504
v  -16.7757 47.4249 7.9504
v  -16.2785 75.0030 7.9504
v  -18.7470 73.0672 7.0217
v  -16.2785 75.0030 7.0217
v  -16.7757 47.4249 7.0217
v  -19.0403 50.0450 7.0217
v  23.4817 73.2163 7.9504
v  23.4817 49.7410 7.9504
v  23.4817 49.7410 7.0217
v  23.4817 73.2163 7.0217
v  21.2243 47.1527 7.9504
v  21.2243 47.1552 7.0217
v  21.6349 75.0030 7.9504
v  21.6349 75.0030 7.0217
# 16 vertices

vn -0.7022 0.3473 0.6215
vn -0.7254 -0.2648 0.6353
vn -0.3273 -0.7088 0.6249
vn -0.2506 0.7259 0.6405
vn -0.7021 0.3472 -0.6217
vn -0.2507 0.7259 -0.6404
vn -0.3273 -0.7088 -0.6249
vn -0.7255 -0.2648 -0.6352
vn 0.7158 0.3035 0.6289
vn 0.7226 -0.2708 0.6360
vn 0.7226 -0.2710 -0.6359
vn 0.7158 0.3035 -0.6289
vn 0.3210 -0.7131 0.6232
vn 0.3206 -0.7116 -0.6251
vn 0.2907 0.7187 0.6316
vn 0.2907 0.7187 -0.6316
# 16 vertex normals

vt 1.0000 0.0000 0.0000
vt 1.0000 1.0000 0.0000
vt 0.9202 1.0000 0.0000
vt 0.9202 0.0000 0.0000
vt 0.0000 0.0000 0.0000
vt 0.0798 0.0000 0.0000
vt 0.0798 1.0000 0.0000
vt 0.0000 1.0000 0.0000
vt 0.0923 0.0000 0.0000
vt 0.0923 1.0000 0.0000
vt 0.9077 0.0000 0.0000
vt 0.9077 1.0000 0.0000
# 12 texture coords

o Box004
g Box004
usemtl 01___Default
s 2
f 17/9/17 18/10/18 19/11/19 20/12/20 
s 4
f 21/13/21 22/14/22 23/15/23 24/16/24 
s 8
f 17/13/17 20/14/20 22/15/22 21/16/21 
s 16
f 25/13/25 26/9/26 27/10/27 28/16/28 
s 32
f 26/13/26 29/17/29 30/18/30 27/16/27 
s 64
f 18/13/18 17/9/17 21/10/21 24/16/24 
s 2
f 19/11/19 29/18/29 31/17/31 20/12/20 
s 4
f 22/14/22 32/19/32 30/20/30 23/15/23 
s 8
f 20/14/20 31/19/31 32/20/32 22/15/22 
s 32
f 19/12/19 18/9/18 24/10/24 23/11/23 
f 29/17/29 19/12/19 23/11/23 30/18/30 
s 2
f 29/18/29 26/16/26 25/13/25 31/17/31 
s 4
f 32/19/32 28/9/28 27/10/27 30/20/30 
s 8
f 31/19/31 25/9/25 28/10/28 32/20/32 
# 14 polygons

